<?xml version="1.0" encoding="UTF-8" standalone="no"?>
<!-- Created with Inkscape (http://www.inkscape.org/) -->

<svg
   width="179.89461mm"
   height="179.94501mm"
   viewBox="0 0 179.89462 179.945"
   version="1.1"
   id="svg1"
   xml:space="preserve"
   inkscape:version="1.4 (86a8ad7, 2024-10-11)"
   sodipodi:docname="stone_sigil_logo.svg"
   inkscape:export-filename="stone_sigil_logo_400px.png"
   inkscape:export-xdpi="51.23"
   inkscape:export-ydpi="51.23"
   xmlns:inkscape="http://www.inkscape.org/namespaces/inkscape"
   xmlns:sodipodi="http://sodipodi.sourceforge.net/DTD/sodipodi-0.dtd"
   xmlns="http://www.w3.org/2000/svg"
   xmlns:svg="http://www.w3.org/2000/svg"><sodipodi:namedview
     id="namedview1"
     pagecolor="#ffffff"
     bordercolor="#000000"
     borderopacity="0.25"
     inkscape:showpageshadow="2"
     inkscape:pageopacity="0.0"
     inkscape:pagecheckerboard="0"
     inkscape:deskcolor="#d1d1d1"
     inkscape:document-units="mm"
     inkscape:zoom="1"
     inkscape:cx="264"
     inkscape:cy="342.5"
     inkscape:window-width="2560"
     inkscape:window-height="1369"
     inkscape:window-x="-8"
     inkscape:window-y="-8"
     inkscape:window-maximized="1"
     inkscape:current-layer="layer1"
     inkscape:clip-to-page="false" /><defs
     id="defs1" /><g
     inkscape:label="Layer 1"
     inkscape:groupmode="layer"
     id="layer1"
     transform="translate(-19.43419,-39.260835)"><g
       inkscape:groupmode="layer"
       id="layer2"
       inkscape:label="background"
       transform="translate(9.8055613,30.773999)"
       style="display:none"><rect
         style="fill:#fffdf1;fill-opacity:1;stroke:#1f241c;stroke-width:0"
         id="rect14"
         width="179.89461"
         height="179.94501"
         x="9.6286287"
         y="8.4868364" /></g><path
       style="display:inline;fill:#1c2a34;fill-opacity:1"
       d="m 101.57066,205.23592 c -1.746246,-0.12348 -4.54421,-0.41042 -6.2177,-0.63766 -1.673489,-0.22724 -3.876145,-0.52612 -4.894791,-0.66419 -4.430967,-0.60056 -8.960445,-2.31624 -16.723144,-6.3344 -5.993358,-3.10231 -9.416266,-5.58446 -13.839844,-10.03608 C 48.118218,175.71196 42.504191,159.74933 43.736804,141.61971 45.345557,117.95774 54.245399,92.559481 68.20636,71.788805 78.345691,56.70383 85.914237,51.363042 96.398595,51.894792 c 8.164135,0.414072 16.986265,4.84895 28.190815,14.17151 3.72184,3.096693 13.64051,13.197056 17.83129,18.15792 15.45672,18.297028 25.71499,36.086928 29.50274,51.163688 1.45918,5.8081 1.83852,9.29559 1.64406,15.11444 -0.26523,7.93638 -1.74872,14.63163 -4.70067,21.21498 -5.79874,12.93218 -16.13966,23.31771 -28.53471,28.65781 -1.23693,0.5329 -2.72521,1.18424 -3.30729,1.44741 -6.14239,2.77711 -22.36465,4.33892 -35.45417,3.41337 z"
       id="path1"
       inkscape:label="stonebg" /><path
       style="display:inline;fill:#65767e;fill-opacity:1;stroke-width:0.994778"
       d="m 97.033164,189.69763 c -3.513619,-0.22065 -6.839641,-0.72622 -10.03794,-1.52582 -6.776649,-1.69423 -9.096661,-2.70633 -15.188982,-6.62613 -2.16078,-1.39025 -3.419853,-2.46683 -5.698227,-4.87235 -5.483888,-5.78993 -8.330225,-10.39029 -10.996992,-17.77382 -2.453692,-6.79358 -3.361919,-11.89028 -3.561103,-19.98383 -0.172926,-7.02655 0.117342,-10.99101 1.273026,-17.38686 2.862087,-15.83948 8.718016,-29.18917 18.37581,-41.891085 4.141704,-5.447159 10.550289,-11.386182 15.774853,-14.619017 13.878441,-8.587649 29.592431,-2.758863 47.067751,17.458829 10.36046,11.98631 18.62518,26.373843 21.98056,38.264523 1.72517,6.11363 2.02773,8.59706 2.01299,16.52178 -0.0129,6.93072 -0.0418,7.33338 -0.74511,10.32826 -2.70027,11.50074 -8.61054,20.98318 -17.85958,28.65383 -8.66786,7.18869 -21.03908,12.19203 -33.28368,13.46107 -2.77453,0.28756 -4.41162,0.28587 -9.113376,-0.009 z"
       id="path2"
       inkscape:label="stonereflection" /><path
       style="display:inline;fill:#384652;fill-opacity:1;stroke-width:1.00152"
       d="m 96.989123,189.87204 c -3.523367,-0.22303 -6.858611,-0.73405 -10.065775,-1.54227 -6.795445,-1.71249 -9.121893,-2.7355 -15.231107,-6.69756 -2.166775,-1.40523 -3.429337,-2.49342 -5.71403,-4.92488 -3.18062,-3.38492 -5.521504,-6.40462 -6.926214,-8.93468 -3.428978,-6.17602 -5.681495,-12.65795 -7.007132,-20.16398 -0.680917,-3.85549 -0.94332,-13.81152 -0.493951,-18.74133 1.076435,-11.80903 4.737974,-24.69097 9.855042,-34.671774 3.059879,-5.968263 5.584029,-9.363061 10.939931,-14.713407 4.519452,-4.514764 7.410347,-6.686516 11.663683,-8.762215 7.337765,-3.580951 13.801232,-3.966284 21.05867,-1.255454 7.44116,2.779455 13.77401,7.211451 21.87243,15.307231 13.99792,13.993352 24.90777,31.389559 28.68862,45.745109 1.07934,4.09829 1.5085,6.58349 1.90323,11.02128 0.3189,3.58551 0.30784,3.8439 -0.27249,6.36185 -2.99987,13.01613 -11.10284,24.40131 -22.87825,32.14536 -7.78099,5.11714 -18.37043,8.80369 -28.25399,9.83619 -2.78223,0.29067 -4.42386,0.28896 -9.138667,-0.009 z"
       id="path3"
       inkscape:label="stonefg" /><path
       style="display:inline;fill:#fffdf1;fill-opacity:1;stroke:none"
       d="m 75.697406,113.33332 h 0.264583 c -0.222273,-4.74922 2.881482,-9.20731 6.086438,-12.43522 8.407626,-8.467819 22.311423,-10.973577 32.542713,-4.179022 5.51439,3.662082 12.86734,12.502122 6.32612,18.681922 -3.29632,3.11418 -8.93504,3.41822 -12.9407,1.66935 -3.54712,-1.54867 -5.69218,-4.71127 -2.91042,-7.97036 -3.04386,-0.8725 -5.837958,2.33867 -5.435988,5.29167 0.416368,3.05875 2.727328,5.16367 5.171408,6.78505 7.68879,5.10067 20.41971,3.75785 23.61426,-5.9913 2.17214,-6.62895 -0.55104,-13.78942 -4.96584,-18.830143 -9.51552,-10.864614 -26.779978,-10.90053 -38.227575,-3.374043 -5.656659,3.719105 -13.060482,13.129706 -9.524999,20.352096 m 19.579166,37.04167 c -0.940285,-3.59175 -5.884355,-4.50988 -8.995833,-3.49634 -4.30199,1.40136 -5.793409,6.42373 -3.343429,10.11093 6.244818,9.39839 24.999,5.01201 22.75966,-7.40834 -0.26868,-1.49023 -0.8117,-2.93419 -1.59117,-4.23333 -5.342938,-8.90514 -21.02527,-13.39067 -29.995894,-7.64903 -5.835125,3.73476 -8.146329,11.34198 -7.332591,17.96778 1.189531,9.68566 8.433315,16.25682 17.65134,18.61882 14.747727,3.77892 36.325365,-0.77782 40.619245,-17.56049 1.88913,-7.38369 -0.53491,-15.77689 -6.22342,-20.85615 -3.36865,-3.00786 -7.79723,-4.93539 -11.90625,-6.70032 -6.30176,-2.70677 -15.588022,-6.54327 -16.187549,-14.51228 -0.558279,-7.42075 8.795131,-11.93465 15.129209,-10.47002 3.76035,0.86949 7.46143,3.79607 5.82084,7.82419 3.84243,-0.0348 5.04139,-3.65907 3.56697,-6.87917 -1.23709,-2.70176 -4.05432,-4.3092 -6.74197,-5.267989 -11.713088,-4.178542 -30.908259,4.659569 -25.64069,19.290909 1.531402,4.25366 5.290499,7.17947 8.971948,9.51092 6.362224,4.02917 13.657402,6.75459 19.048972,12.18511 5.2127,5.25037 7.37572,13.3118 2.58438,19.57897 -6.13373,8.02304 -19.581236,10.64717 -28.777101,7.1266 -7.699175,-2.94758 -13.188386,-12.62757 -9.934124,-20.62035 3.503283,-8.6044 14.391466,-8.5245 21.046627,-3.85238 2.69184,1.88975 5.717958,5.01957 5.387608,8.61488 -0.60735,6.60985 -10.321992,6.59857 -13.285914,1.84821 -1.75741,-2.81667 1.393176,-5.53492 4.194136,-4.77741 1.166862,0.31557 2.107619,1.07766 3.175,1.60628 z"
       id="path4"
       inkscape:label="sigil" /><rect
       style="display:none;fill:#42fdf1;fill-opacity:1;stroke:#1f241c;stroke-width:0"
       id="rect3"
       width="19.795357"
       height="11.877215"
       x="23.754425"
       y="139.28731" /><rect
       style="display:none;fill:#42fdf1;fill-opacity:1;stroke:#1f241c;stroke-width:0"
       id="rect4"
       width="11.157382"
       height="19.43544"
       x="94.297867"
       y="32.032482" /><rect
       style="display:none;fill:#42fdf1;fill-opacity:1;stroke:#1f241c;stroke-width:0"
       id="rect5"
       width="19.795353"
       height="11.877213"
       x="174.55904"
       y="145.40587" /><rect
       style="display:none;fill:#42fdf1;fill-opacity:1;stroke:#1f241c;stroke-width:0"
       id="rect6"
       width="10.437551"
       height="20.875101"
       x="107.25483"
       y="205.51178" /><rect
       style="display:none;fill:#42fdf1;fill-opacity:1;stroke:#1f241c;stroke-width:0"
       id="rect7-8"
       width="17.275957"
       height="179.77417"
       x="121.11157"
       y="-199.29114"
       inkscape:label="vertical span"
       transform="rotate(90)" /><rect
       style="display:none;fill:#42fdf1;fill-opacity:1;stroke:#1f241c;stroke-width:0"
       id="rect7-8-1"
       width="17.275957"
       height="179.85878"
       x="95.131798"
       y="39.331844"
       inkscape:label="vertical span" /></g></svg>
