<?xml version="1.0" encoding="UTF-8" standalone="no"?>
<!DOCTYPE svg PUBLIC "-//W3C//DTD SVG 1.1//EN"
 "http://www.w3.org/Graphics/SVG/1.1/DTD/svg11.dtd">
<!-- Generated by graphviz version 2.40.1 (20161225.0304)
 -->
<!-- Title: Tree Pages: 1 -->
<svg width="643pt" height="476pt"
 viewBox="0.00 0.00 643.00 476.00" xmlns="http://www.w3.org/2000/svg" xmlns:xlink="http://www.w3.org/1999/xlink">
<g id="graph0" class="graph" transform="scale(1 1) rotate(0) translate(4 472)">
<title>Tree</title>
<polygon fill="#ffffff" stroke="transparent" points="-4,4 -4,-472 639,-472 639,4 -4,4"/>
<!-- top -->
<g id="node1" class="node">
<title>top</title>
<path fill="#d3d3d3" stroke="#000000" d="M434.5632,-468C434.5632,-468 243.4368,-468 243.4368,-468 237.4368,-468 231.4368,-462 231.4368,-456 231.4368,-456 231.4368,-444 231.4368,-444 231.4368,-438 237.4368,-432 243.4368,-432 243.4368,-432 434.5632,-432 434.5632,-432 440.5632,-432 446.5632,-438 446.5632,-444 446.5632,-444 446.5632,-456 446.5632,-456 446.5632,-462 440.5632,-468 434.5632,-468"/>
<text text-anchor="middle" x="339" y="-445.8" font-family="Times,serif" font-size="14.00" fill="#000000">Starting Rectangle, cut horizontally</text>
</g>
<!-- t1 -->
<g id="node2" class="node">
<title>t1</title>
<path fill="#d3d3d3" stroke="#000000" d="M321.8801,-396C321.8801,-396 238.1199,-396 238.1199,-396 232.1199,-396 226.1199,-390 226.1199,-384 226.1199,-384 226.1199,-372 226.1199,-372 226.1199,-366 232.1199,-360 238.1199,-360 238.1199,-360 321.8801,-360 321.8801,-360 327.8801,-360 333.8801,-366 333.8801,-372 333.8801,-372 333.8801,-384 333.8801,-384 333.8801,-390 327.8801,-396 321.8801,-396"/>
<text text-anchor="middle" x="280" y="-373.8" font-family="Times,serif" font-size="14.00" fill="#000000">Cut horizontally</text>
</g>
<!-- top&#45;&gt;t1 -->
<g id="edge1" class="edge">
<title>top&#45;&gt;t1</title>
<path fill="none" stroke="#000000" d="M324.1118,-431.8314C317.247,-423.454 308.9699,-413.3531 301.4489,-404.1749"/>
<polygon fill="#000000" stroke="#000000" points="304.1341,-401.9297 295.0886,-396.4133 298.7197,-406.3665 304.1341,-401.9297"/>
</g>
<!-- t4 -->
<g id="node9" class="node">
<title>t4</title>
<path fill="#d3d3d3" stroke="#000000" d="M432.0949,-396C432.0949,-396 363.9051,-396 363.9051,-396 357.9051,-396 351.9051,-390 351.9051,-384 351.9051,-384 351.9051,-372 351.9051,-372 351.9051,-366 357.9051,-360 363.9051,-360 363.9051,-360 432.0949,-360 432.0949,-360 438.0949,-360 444.0949,-366 444.0949,-372 444.0949,-372 444.0949,-384 444.0949,-384 444.0949,-390 438.0949,-396 432.0949,-396"/>
<text text-anchor="middle" x="398" y="-373.8" font-family="Times,serif" font-size="14.00" fill="#000000">Cut vertically</text>
</g>
<!-- top&#45;&gt;t4 -->
<g id="edge8" class="edge">
<title>top&#45;&gt;t4</title>
<path fill="none" stroke="#000000" d="M353.8882,-431.8314C360.753,-423.454 369.0301,-413.3531 376.5511,-404.1749"/>
<polygon fill="#000000" stroke="#000000" points="379.2803,-406.3665 382.9114,-396.4133 373.8659,-401.9297 379.2803,-406.3665"/>
</g>
<!-- t2 -->
<g id="node3" class="node">
<title>t2</title>
<path fill="#d3d3d3" stroke="#000000" d="M217.0949,-324C217.0949,-324 148.9051,-324 148.9051,-324 142.9051,-324 136.9051,-318 136.9051,-312 136.9051,-312 136.9051,-300 136.9051,-300 136.9051,-294 142.9051,-288 148.9051,-288 148.9051,-288 217.0949,-288 217.0949,-288 223.0949,-288 229.0949,-294 229.0949,-300 229.0949,-300 229.0949,-312 229.0949,-312 229.0949,-318 223.0949,-324 217.0949,-324"/>
<text text-anchor="middle" x="183" y="-301.8" font-family="Times,serif" font-size="14.00" fill="#000000">Cut vertically</text>
</g>
<!-- t1&#45;&gt;t2 -->
<g id="edge3" class="edge">
<title>t1&#45;&gt;t2</title>
<path fill="none" stroke="#000000" d="M255.5228,-359.8314C243.4605,-350.8779 228.746,-339.9558 215.7314,-330.2955"/>
<polygon fill="#000000" stroke="#000000" points="217.5852,-327.3127 207.4694,-324.1628 213.413,-332.9335 217.5852,-327.3127"/>
</g>
<!-- r1 -->
<g id="node5" class="node">
<title>r1</title>
<path fill="#ffffe0" stroke="#000000" d="M307,-324C307,-324 259,-324 259,-324 253,-324 247,-318 247,-312 247,-312 247,-300 247,-300 247,-294 253,-288 259,-288 259,-288 307,-288 307,-288 313,-288 319,-294 319,-300 319,-300 319,-312 319,-312 319,-318 313,-324 307,-324"/>
<text text-anchor="middle" x="283" y="-301.8" font-family="Times,serif" font-size="14.00" fill="#000000">r1</text>
</g>
<!-- t1&#45;&gt;r1 -->
<g id="edge2" class="edge">
<title>t1&#45;&gt;r1</title>
<path fill="none" stroke="#000000" d="M280.757,-359.8314C281.0779,-352.131 281.4594,-342.9743 281.816,-334.4166"/>
<polygon fill="#000000" stroke="#000000" points="285.3133,-334.5503 282.2328,-324.4133 278.3194,-334.2589 285.3133,-334.5503"/>
</g>
<!-- t3 -->
<g id="node4" class="node">
<title>t3</title>
<path fill="#d3d3d3" stroke="#000000" d="M122.8801,-252C122.8801,-252 39.1199,-252 39.1199,-252 33.1199,-252 27.1199,-246 27.1199,-240 27.1199,-240 27.1199,-228 27.1199,-228 27.1199,-222 33.1199,-216 39.1199,-216 39.1199,-216 122.8801,-216 122.8801,-216 128.8801,-216 134.8801,-222 134.8801,-228 134.8801,-228 134.8801,-240 134.8801,-240 134.8801,-246 128.8801,-252 122.8801,-252"/>
<text text-anchor="middle" x="81" y="-229.8" font-family="Times,serif" font-size="14.00" fill="#000000">Cut horizontally</text>
</g>
<!-- t2&#45;&gt;t3 -->
<g id="edge5" class="edge">
<title>t2&#45;&gt;t3</title>
<path fill="none" stroke="#000000" d="M157.2611,-287.8314C144.4563,-278.7927 128.8091,-267.7476 115.0281,-258.0198"/>
<polygon fill="#000000" stroke="#000000" points="116.9188,-255.0703 106.7307,-252.1628 112.882,-260.7891 116.9188,-255.0703"/>
</g>
<!-- r2 -->
<g id="node6" class="node">
<title>r2</title>
<path fill="#ffffe0" stroke="#000000" d="M213,-252C213,-252 165,-252 165,-252 159,-252 153,-246 153,-240 153,-240 153,-228 153,-228 153,-222 159,-216 165,-216 165,-216 213,-216 213,-216 219,-216 225,-222 225,-228 225,-228 225,-240 225,-240 225,-246 219,-252 213,-252"/>
<text text-anchor="middle" x="189" y="-229.8" font-family="Times,serif" font-size="14.00" fill="#000000">r2</text>
</g>
<!-- t2&#45;&gt;r2 -->
<g id="edge4" class="edge">
<title>t2&#45;&gt;r2</title>
<path fill="none" stroke="#000000" d="M184.5141,-287.8314C185.1558,-280.131 185.9188,-270.9743 186.6319,-262.4166"/>
<polygon fill="#000000" stroke="#000000" points="190.1229,-262.6694 187.4656,-252.4133 183.1471,-262.088 190.1229,-262.6694"/>
</g>
<!-- r3 -->
<g id="node7" class="node">
<title>r3</title>
<path fill="#ffffe0" stroke="#000000" d="M60,-180C60,-180 12,-180 12,-180 6,-180 0,-174 0,-168 0,-168 0,-156 0,-156 0,-150 6,-144 12,-144 12,-144 60,-144 60,-144 66,-144 72,-150 72,-156 72,-156 72,-168 72,-168 72,-174 66,-180 60,-180"/>
<text text-anchor="middle" x="36" y="-157.8" font-family="Times,serif" font-size="14.00" fill="#000000">r3</text>
</g>
<!-- t3&#45;&gt;r3 -->
<g id="edge6" class="edge">
<title>t3&#45;&gt;r3</title>
<path fill="none" stroke="#000000" d="M69.6446,-215.8314C64.5674,-207.7079 58.4773,-197.9637 52.8824,-189.0118"/>
<polygon fill="#000000" stroke="#000000" points="55.7763,-187.0383 47.5083,-180.4133 49.8403,-190.7483 55.7763,-187.0383"/>
</g>
<!-- r4 -->
<g id="node8" class="node">
<title>r4</title>
<path fill="#ffffe0" stroke="#000000" d="M150,-180C150,-180 102,-180 102,-180 96,-180 90,-174 90,-168 90,-168 90,-156 90,-156 90,-150 96,-144 102,-144 102,-144 150,-144 150,-144 156,-144 162,-150 162,-156 162,-156 162,-168 162,-168 162,-174 156,-180 150,-180"/>
<text text-anchor="middle" x="126" y="-157.8" font-family="Times,serif" font-size="14.00" fill="#000000">r4</text>
</g>
<!-- t3&#45;&gt;r4 -->
<g id="edge7" class="edge">
<title>t3&#45;&gt;r4</title>
<path fill="none" stroke="#000000" d="M92.3554,-215.8314C97.4326,-207.7079 103.5227,-197.9637 109.1176,-189.0118"/>
<polygon fill="#000000" stroke="#000000" points="112.1597,-190.7483 114.4917,-180.4133 106.2237,-187.0383 112.1597,-190.7483"/>
</g>
<!-- t5 -->
<g id="node10" class="node">
<title>t5</title>
<path fill="#d3d3d3" stroke="#000000" d="M437.8801,-324C437.8801,-324 354.1199,-324 354.1199,-324 348.1199,-324 342.1199,-318 342.1199,-312 342.1199,-312 342.1199,-300 342.1199,-300 342.1199,-294 348.1199,-288 354.1199,-288 354.1199,-288 437.8801,-288 437.8801,-288 443.8801,-288 449.8801,-294 449.8801,-300 449.8801,-300 449.8801,-312 449.8801,-312 449.8801,-318 443.8801,-324 437.8801,-324"/>
<text text-anchor="middle" x="396" y="-301.8" font-family="Times,serif" font-size="14.00" fill="#000000">Cut horizontally</text>
</g>
<!-- t4&#45;&gt;t5 -->
<g id="edge9" class="edge">
<title>t4&#45;&gt;t5</title>
<path fill="none" stroke="#000000" d="M397.4953,-359.8314C397.2814,-352.131 397.0271,-342.9743 396.7894,-334.4166"/>
<polygon fill="#000000" stroke="#000000" points="400.2879,-334.3122 396.5115,-324.4133 393.2906,-334.5066 400.2879,-334.3122"/>
</g>
<!-- t10 -->
<g id="node23" class="node">
<title>t10</title>
<path fill="#d3d3d3" stroke="#000000" d="M548.0949,-324C548.0949,-324 479.9051,-324 479.9051,-324 473.9051,-324 467.9051,-318 467.9051,-312 467.9051,-312 467.9051,-300 467.9051,-300 467.9051,-294 473.9051,-288 479.9051,-288 479.9051,-288 548.0949,-288 548.0949,-288 554.0949,-288 560.0949,-294 560.0949,-300 560.0949,-300 560.0949,-312 560.0949,-312 560.0949,-318 554.0949,-324 548.0949,-324"/>
<text text-anchor="middle" x="514" y="-301.8" font-family="Times,serif" font-size="14.00" fill="#000000">Cut vertically</text>
</g>
<!-- t4&#45;&gt;t10 -->
<g id="edge20" class="edge">
<title>t4&#45;&gt;t10</title>
<path fill="none" stroke="#000000" d="M427.2717,-359.8314C442.1088,-350.6221 460.3015,-339.3301 476.1862,-329.4706"/>
<polygon fill="#000000" stroke="#000000" points="478.087,-332.4102 484.7377,-324.1628 474.3955,-326.4628 478.087,-332.4102"/>
</g>
<!-- t6 -->
<g id="node11" class="node">
<title>t6</title>
<path fill="#d3d3d3" stroke="#000000" d="M343.0949,-252C343.0949,-252 274.9051,-252 274.9051,-252 268.9051,-252 262.9051,-246 262.9051,-240 262.9051,-240 262.9051,-228 262.9051,-228 262.9051,-222 268.9051,-216 274.9051,-216 274.9051,-216 343.0949,-216 343.0949,-216 349.0949,-216 355.0949,-222 355.0949,-228 355.0949,-228 355.0949,-240 355.0949,-240 355.0949,-246 349.0949,-252 343.0949,-252"/>
<text text-anchor="middle" x="309" y="-229.8" font-family="Times,serif" font-size="14.00" fill="#000000">Cut vertically</text>
</g>
<!-- t5&#45;&gt;t6 -->
<g id="edge11" class="edge">
<title>t5&#45;&gt;t6</title>
<path fill="none" stroke="#000000" d="M374.0462,-287.8314C363.3305,-278.9632 350.2811,-268.1637 338.691,-258.5718"/>
<polygon fill="#000000" stroke="#000000" points="340.8822,-255.8422 330.9467,-252.1628 336.4192,-261.2349 340.8822,-255.8422"/>
</g>
<!-- r5 -->
<g id="node14" class="node">
<title>r5</title>
<path fill="#ffffe0" stroke="#000000" d="M433,-252C433,-252 385,-252 385,-252 379,-252 373,-246 373,-240 373,-240 373,-228 373,-228 373,-222 379,-216 385,-216 385,-216 433,-216 433,-216 439,-216 445,-222 445,-228 445,-228 445,-240 445,-240 445,-246 439,-252 433,-252"/>
<text text-anchor="middle" x="409" y="-229.8" font-family="Times,serif" font-size="14.00" fill="#000000">r5</text>
</g>
<!-- t5&#45;&gt;r5 -->
<g id="edge10" class="edge">
<title>t5&#45;&gt;r5</title>
<path fill="none" stroke="#000000" d="M399.2804,-287.8314C400.6708,-280.131 402.3241,-270.9743 403.8692,-262.4166"/>
<polygon fill="#000000" stroke="#000000" points="407.3428,-262.8761 405.6754,-252.4133 400.4542,-261.6322 407.3428,-262.8761"/>
</g>
<!-- t7 -->
<g id="node12" class="node">
<title>t7</title>
<path fill="#d3d3d3" stroke="#000000" d="M302.8801,-180C302.8801,-180 219.1199,-180 219.1199,-180 213.1199,-180 207.1199,-174 207.1199,-168 207.1199,-168 207.1199,-156 207.1199,-156 207.1199,-150 213.1199,-144 219.1199,-144 219.1199,-144 302.8801,-144 302.8801,-144 308.8801,-144 314.8801,-150 314.8801,-156 314.8801,-156 314.8801,-168 314.8801,-168 314.8801,-174 308.8801,-180 302.8801,-180"/>
<text text-anchor="middle" x="261" y="-157.8" font-family="Times,serif" font-size="14.00" fill="#000000">Cut horizontally</text>
</g>
<!-- t6&#45;&gt;t7 -->
<g id="edge12" class="edge">
<title>t6&#45;&gt;t7</title>
<path fill="none" stroke="#000000" d="M296.8876,-215.8314C291.4719,-207.7079 284.9758,-197.9637 279.0079,-189.0118"/>
<polygon fill="#000000" stroke="#000000" points="281.7347,-186.7923 273.2755,-180.4133 275.9104,-190.6753 281.7347,-186.7923"/>
</g>
<!-- t8 -->
<g id="node13" class="node">
<title>t8</title>
<path fill="#d3d3d3" stroke="#000000" d="M413.0949,-180C413.0949,-180 344.9051,-180 344.9051,-180 338.9051,-180 332.9051,-174 332.9051,-168 332.9051,-168 332.9051,-156 332.9051,-156 332.9051,-150 338.9051,-144 344.9051,-144 344.9051,-144 413.0949,-144 413.0949,-144 419.0949,-144 425.0949,-150 425.0949,-156 425.0949,-156 425.0949,-168 425.0949,-168 425.0949,-174 419.0949,-180 413.0949,-180"/>
<text text-anchor="middle" x="379" y="-157.8" font-family="Times,serif" font-size="14.00" fill="#000000">Cut vertically</text>
</g>
<!-- t6&#45;&gt;t8 -->
<g id="edge13" class="edge">
<title>t6&#45;&gt;t8</title>
<path fill="none" stroke="#000000" d="M326.664,-215.8314C334.9732,-207.2848 345.0264,-196.9443 354.0918,-187.6198"/>
<polygon fill="#000000" stroke="#000000" points="356.6369,-190.023 361.0982,-180.4133 351.6179,-185.1435 356.6369,-190.023"/>
</g>
<!-- r6 -->
<g id="node15" class="node">
<title>r6</title>
<path fill="#ffffe0" stroke="#000000" d="M202,-108C202,-108 154,-108 154,-108 148,-108 142,-102 142,-96 142,-96 142,-84 142,-84 142,-78 148,-72 154,-72 154,-72 202,-72 202,-72 208,-72 214,-78 214,-84 214,-84 214,-96 214,-96 214,-102 208,-108 202,-108"/>
<text text-anchor="middle" x="178" y="-85.8" font-family="Times,serif" font-size="14.00" fill="#000000">r6</text>
</g>
<!-- t7&#45;&gt;r6 -->
<g id="edge14" class="edge">
<title>t7&#45;&gt;r6</title>
<path fill="none" stroke="#000000" d="M240.0556,-143.8314C229.9309,-135.0485 217.6223,-124.3712 206.6452,-114.8489"/>
<polygon fill="#000000" stroke="#000000" points="208.7851,-112.0718 198.9377,-108.1628 204.1981,-117.3595 208.7851,-112.0718"/>
</g>
<!-- r7 -->
<g id="node16" class="node">
<title>r7</title>
<path fill="#ffffe0" stroke="#000000" d="M292,-108C292,-108 244,-108 244,-108 238,-108 232,-102 232,-96 232,-96 232,-84 232,-84 232,-78 238,-72 244,-72 244,-72 292,-72 292,-72 298,-72 304,-78 304,-84 304,-84 304,-96 304,-96 304,-102 298,-108 292,-108"/>
<text text-anchor="middle" x="268" y="-85.8" font-family="Times,serif" font-size="14.00" fill="#000000">r7</text>
</g>
<!-- t7&#45;&gt;r7 -->
<g id="edge15" class="edge">
<title>t7&#45;&gt;r7</title>
<path fill="none" stroke="#000000" d="M262.7664,-143.8314C263.515,-136.131 264.4053,-126.9743 265.2373,-118.4166"/>
<polygon fill="#000000" stroke="#000000" points="268.7256,-118.7051 266.2098,-108.4133 261.7585,-118.0276 268.7256,-118.7051"/>
</g>
<!-- r10 -->
<g id="node17" class="node">
<title>r10</title>
<path fill="#ffffe0" stroke="#000000" d="M396,-108C396,-108 348,-108 348,-108 342,-108 336,-102 336,-96 336,-96 336,-84 336,-84 336,-78 342,-72 348,-72 348,-72 396,-72 396,-72 402,-72 408,-78 408,-84 408,-84 408,-96 408,-96 408,-102 402,-108 396,-108"/>
<text text-anchor="middle" x="372" y="-85.8" font-family="Times,serif" font-size="14.00" fill="#000000">r10</text>
</g>
<!-- t8&#45;&gt;r10 -->
<g id="edge16" class="edge">
<title>t8&#45;&gt;r10</title>
<path fill="none" stroke="#000000" d="M377.2336,-143.8314C376.485,-136.131 375.5947,-126.9743 374.7627,-118.4166"/>
<polygon fill="#000000" stroke="#000000" points="378.2415,-118.0276 373.7902,-108.4133 371.2744,-118.7051 378.2415,-118.0276"/>
</g>
<!-- t9 -->
<g id="node22" class="node">
<title>t9</title>
<path fill="#d3d3d3" stroke="#000000" d="M506.0949,-108C506.0949,-108 437.9051,-108 437.9051,-108 431.9051,-108 425.9051,-102 425.9051,-96 425.9051,-96 425.9051,-84 425.9051,-84 425.9051,-78 431.9051,-72 437.9051,-72 437.9051,-72 506.0949,-72 506.0949,-72 512.0949,-72 518.0949,-78 518.0949,-84 518.0949,-84 518.0949,-96 518.0949,-96 518.0949,-102 512.0949,-108 506.0949,-108"/>
<text text-anchor="middle" x="472" y="-85.8" font-family="Times,serif" font-size="14.00" fill="#000000">Cut vertically</text>
</g>
<!-- t8&#45;&gt;t9 -->
<g id="edge17" class="edge">
<title>t8&#45;&gt;t9</title>
<path fill="none" stroke="#000000" d="M402.4678,-143.8314C414.0327,-134.8779 428.1404,-123.9558 440.6183,-114.2955"/>
<polygon fill="#000000" stroke="#000000" points="442.775,-117.0521 448.5397,-108.1628 438.4898,-111.5171 442.775,-117.0521"/>
</g>
<!-- r8 -->
<g id="node18" class="node">
<title>r8</title>
<path fill="#ffffe0" stroke="#000000" d="M451,-36C451,-36 403,-36 403,-36 397,-36 391,-30 391,-24 391,-24 391,-12 391,-12 391,-6 397,0 403,0 403,0 451,0 451,0 457,0 463,-6 463,-12 463,-12 463,-24 463,-24 463,-30 457,-36 451,-36"/>
<text text-anchor="middle" x="427" y="-13.8" font-family="Times,serif" font-size="14.00" fill="#000000">r8</text>
</g>
<!-- r9 -->
<g id="node19" class="node">
<title>r9</title>
<path fill="#ffffe0" stroke="#000000" d="M541,-36C541,-36 493,-36 493,-36 487,-36 481,-30 481,-24 481,-24 481,-12 481,-12 481,-6 487,0 493,0 493,0 541,0 541,0 547,0 553,-6 553,-12 553,-12 553,-24 553,-24 553,-30 547,-36 541,-36"/>
<text text-anchor="middle" x="517" y="-13.8" font-family="Times,serif" font-size="14.00" fill="#000000">r9</text>
</g>
<!-- r11 -->
<g id="node20" class="node">
<title>r11</title>
<path fill="#ffffe0" stroke="#000000" d="M533,-252C533,-252 485,-252 485,-252 479,-252 473,-246 473,-240 473,-240 473,-228 473,-228 473,-222 479,-216 485,-216 485,-216 533,-216 533,-216 539,-216 545,-222 545,-228 545,-228 545,-240 545,-240 545,-246 539,-252 533,-252"/>
<text text-anchor="middle" x="509" y="-229.8" font-family="Times,serif" font-size="14.00" fill="#000000">r11</text>
</g>
<!-- r12 -->
<g id="node21" class="node">
<title>r12</title>
<path fill="#ffffe0" stroke="#000000" d="M623,-252C623,-252 575,-252 575,-252 569,-252 563,-246 563,-240 563,-240 563,-228 563,-228 563,-222 569,-216 575,-216 575,-216 623,-216 623,-216 629,-216 635,-222 635,-228 635,-228 635,-240 635,-240 635,-246 629,-252 623,-252"/>
<text text-anchor="middle" x="599" y="-229.8" font-family="Times,serif" font-size="14.00" fill="#000000">r12</text>
</g>
<!-- t9&#45;&gt;r8 -->
<g id="edge18" class="edge">
<title>t9&#45;&gt;r8</title>
<path fill="none" stroke="#000000" d="M460.6446,-71.8314C455.5674,-63.7079 449.4773,-53.9637 443.8824,-45.0118"/>
<polygon fill="#000000" stroke="#000000" points="446.7763,-43.0383 438.5083,-36.4133 440.8403,-46.7483 446.7763,-43.0383"/>
</g>
<!-- t9&#45;&gt;r9 -->
<g id="edge19" class="edge">
<title>t9&#45;&gt;r9</title>
<path fill="none" stroke="#000000" d="M483.3554,-71.8314C488.4326,-63.7079 494.5227,-53.9637 500.1176,-45.0118"/>
<polygon fill="#000000" stroke="#000000" points="503.1597,-46.7483 505.4917,-36.4133 497.2237,-43.0383 503.1597,-46.7483"/>
</g>
<!-- t10&#45;&gt;r11 -->
<g id="edge21" class="edge">
<title>t10&#45;&gt;r11</title>
<path fill="none" stroke="#000000" d="M512.7383,-287.8314C512.2035,-280.131 511.5677,-270.9743 510.9734,-262.4166"/>
<polygon fill="#000000" stroke="#000000" points="514.4632,-262.1467 510.2787,-252.4133 507.48,-262.6317 514.4632,-262.1467"/>
</g>
<!-- t10&#45;&gt;r12 -->
<g id="edge22" class="edge">
<title>t10&#45;&gt;r12</title>
<path fill="none" stroke="#000000" d="M535.4491,-287.8314C545.8178,-279.0485 558.4229,-268.3712 569.6646,-258.8489"/>
<polygon fill="#000000" stroke="#000000" points="572.1895,-261.297 577.5578,-252.1628 567.6651,-255.9556 572.1895,-261.297"/>
</g>
</g>
</svg>
